<?xml version="1.0" standalone="no"?>
<!DOCTYPE svg PUBLIC "-//W3C//DTD SVG 20010904//EN"
 "http://www.w3.org/TR/2001/REC-SVG-20010904/DTD/svg10.dtd">
<svg version="1.0" xmlns="http://www.w3.org/2000/svg"
 width="700.000000pt" height="700.000000pt" viewBox="0 0 700.000000 700.000000"
 preserveAspectRatio="xMidYMid meet">
<metadata>
Created by potrace 1.14, written by Peter Selinger 2001-2017
</metadata>
<g transform="translate(0.000000,700.000000) scale(0.100000,-0.100000)"
fill="#000000" stroke="none">
<path d="M0 3500 l0 -3500 3500 0 3500 0 0 3500 0 3500 -3500 0 -3500 0 0
-3500z m6590 0 l0 -3090 -3090 0 -3090 0 0 3090 0 3090 3090 0 3090 0 0 -3090z"/>
<path d="M920 3431 l0 -1251 255 0 255 0 0 455 0 455 208 0 207 0 232 -453
231 -452 276 -3 c242 -2 276 0 276 13 0 8 -119 241 -265 516 -146 275 -265
504 -265 508 0 4 21 17 48 30 179 87 308 242 364 436 29 105 32 343 5 445 -62
231 -225 402 -463 482 -171 57 -219 61 -816 65 l-548 5 0 -1251z m1053 814
c164 -35 256 -134 276 -300 21 -174 -44 -321 -169 -385 -84 -43 -141 -50 -402
-50 l-248 0 0 375 0 375 238 0 c167 0 257 -5 305 -15z"/>
<path d="M3167 4673 c-4 -3 -7 -566 -7 -1250 l0 -1243 840 0 840 0 0 205 0
205 -580 0 -580 0 0 335 0 335 495 0 495 0 0 200 0 200 -495 0 -495 0 0 300 0
300 575 0 575 0 0 210 0 210 -828 0 c-456 0 -832 -3 -835 -7z"/>
<path d="M5090 3465 l0 -205 495 0 495 0 0 205 0 205 -495 0 -495 0 0 -205z"/>
</g>
</svg>
