<svg width="595" height="233" viewBox="0 0 595 233" fill="none" xmlns="http://www.w3.org/2000/svg">
<path d="M280.988 87.6898H266.93V111.908H258.996V52.04H278.81C285.551 52.04 290.736 53.5755 294.368 56.6452C297.999 59.7153 299.815 64.1843 299.815 70.0496C299.815 73.778 298.808 77.0261 296.793 79.7947C294.779 82.564 291.977 84.6331 288.387 86.0034L302.446 111.415V111.908H293.978L280.988 87.6898ZM266.93 81.234H279.056C282.975 81.234 286.092 80.2182 288.408 78.1857C290.723 76.1536 291.881 73.4353 291.881 70.0294C291.881 66.322 290.778 63.4802 288.572 61.5026C286.366 59.5254 283.181 58.5229 279.015 58.4955H266.93V81.234Z" fill="white"/>
<path d="M344.717 84.2359H318.779V105.452H348.911V111.908H310.887V52.04H348.498V58.4955H318.779V77.7801H344.717V84.2359Z" fill="white"/>
<path d="M377.956 84.8348H353.633V77.3069H377.956V84.8348Z" fill="white"/>
<path d="M386.885 111.908V52.04H406.451C412.946 52.04 417.83 53.3837 421.105 56.07C424.379 58.7562 426.018 62.7304 426.018 67.9939C426.018 70.7899 425.222 73.2638 423.634 75.4156C422.044 77.5682 419.878 79.2332 417.138 80.4118C420.371 81.316 422.928 83.0371 424.805 85.572C426.681 88.108 427.621 91.1297 427.621 94.6385C427.621 100.012 425.88 104.233 422.4 107.303C418.919 110.373 414 111.908 407.643 111.908H386.885ZM394.776 77.5746H406.697C410.151 77.5746 412.911 76.7097 414.981 74.9791C417.049 73.2482 418.084 70.8993 418.084 67.9321C418.084 64.6352 417.125 62.2387 415.207 60.7418C413.287 59.2445 410.369 58.4955 406.451 58.4955H394.776V77.5746ZM394.776 83.9069V105.452H407.808C411.48 105.452 414.377 104.5 416.501 102.595C418.624 100.69 419.687 98.0654 419.687 94.7208C419.687 87.5118 415.767 83.9069 407.931 83.9069H394.776Z" fill="white"/>
<path d="M485.345 83.9058C485.345 89.7719 484.357 94.8909 482.384 99.2635C480.411 103.636 477.616 106.973 473.999 109.275C470.382 111.578 466.161 112.729 461.338 112.729C456.625 112.729 452.445 111.572 448.8 109.255C445.156 106.939 442.326 103.636 440.313 99.3454C438.297 95.0559 437.263 90.0871 437.209 84.4402V80.1225C437.209 74.3658 438.208 69.2815 440.209 64.8678C442.21 60.4548 445.039 57.0759 448.698 54.7316C452.357 52.3885 456.542 51.2163 461.256 51.2163C466.051 51.2163 470.278 52.3747 473.937 54.6912C477.596 57.0077 480.411 60.3656 482.384 64.7649C484.357 69.1649 485.345 74.2838 485.345 80.1225V83.9058ZM477.492 80.0402C477.492 72.9409 476.068 67.493 473.218 63.696C470.367 59.8994 466.38 58.0011 461.256 58.0011C456.268 58.0011 452.342 59.8994 449.479 63.696C446.615 67.493 445.143 72.7625 445.06 79.5057V83.9058C445.06 90.7866 446.505 96.1937 449.396 100.127C452.287 104.061 456.268 106.027 461.338 106.027C466.436 106.027 470.382 104.17 473.177 100.456C475.972 96.7411 477.411 91.4167 477.492 84.481V80.0402Z" fill="white"/>
<path d="M519.106 87.6898H505.047V111.908H497.113V52.04H516.927C523.668 52.04 528.854 53.5755 532.485 56.6452C536.116 59.7153 537.932 64.1843 537.932 70.0496C537.932 73.778 536.925 77.0261 534.911 79.7947C532.896 82.564 530.095 84.6331 526.505 86.0034L540.563 111.415V111.908H532.095L519.106 87.6898ZM505.047 81.234H517.173C521.092 81.234 524.209 80.2182 526.525 78.1857C528.841 76.1536 529.999 73.4353 529.999 70.0294C529.999 66.322 528.895 63.4802 526.689 61.5026C524.483 59.5254 521.297 58.5229 517.133 58.4955H505.047V81.234Z" fill="white"/>
<path d="M595 111.908H587.067L556.938 65.7731V111.908H549.004V52.04H556.938L587.15 98.3799V52.04H595V111.908Z" fill="white"/>
<path d="M287.139 163.751H263.599L258.25 178.116H256.303L274.296 130.032H276.475L294.468 178.116H292.52L287.139 163.751ZM264.259 161.967H286.478L275.385 132.178L264.259 161.967Z" fill="white" stroke="#1C1C1B" stroke-width="0.0762" stroke-miterlimit="22.9256"/>
<path d="M335.695 172.965C334.485 174.638 332.36 176.025 329.324 177.127C326.286 178.227 322.941 178.777 319.287 178.777C315.722 178.777 312.54 177.908 309.746 176.168C306.95 174.429 304.765 171.975 303.192 168.803C301.618 165.633 300.809 162.045 300.766 158.038V149.781C300.766 145.84 301.525 142.306 303.044 139.181C304.563 136.054 306.697 133.638 309.448 131.932C312.199 130.226 315.292 129.372 318.726 129.372C323.502 129.372 327.393 130.594 330.396 133.038C333.4 135.482 335.145 138.817 335.629 143.044H333.847C333.252 139.214 331.657 136.275 329.06 134.228C326.462 132.179 323.017 131.156 318.726 131.156C313.884 131.156 309.977 132.884 307.006 136.34C304.034 139.797 302.549 144.343 302.549 149.98V157.641C302.549 161.406 303.247 164.764 304.645 167.713C306.042 170.664 308.013 172.948 310.554 174.567C313.096 176.185 316.007 176.994 319.287 176.994C322.5 176.994 325.482 176.52 328.234 175.572C330.985 174.622 332.878 173.476 333.912 172.131V158.103H319.221V156.32H335.695V172.965Z" fill="white"/>
<path d="M374.137 154.272H350.037V176.333H377.506V178.116H348.254V130.032H377.506V131.816H350.037V152.488H374.137V154.272Z" fill="white"/>
<path d="M421.348 178.116H419.565L388.531 133.07V178.116H386.715V130.032H388.531L419.565 174.979V130.032H421.348V178.116Z" fill="white"/>
<path d="M467.233 163.388C466.771 168.341 465.065 172.146 462.116 174.798C459.166 177.451 455.161 178.777 450.098 178.777C446.686 178.777 443.665 177.913 441.036 176.185C438.406 174.457 436.364 172.002 434.911 168.821C433.459 165.638 432.721 162.001 432.699 157.906V150.475C432.699 146.38 433.415 142.72 434.845 139.495C436.276 136.27 438.317 133.776 440.97 132.015C443.622 130.254 446.665 129.372 450.098 129.372C455.117 129.372 459.112 130.693 462.083 133.336C465.054 135.977 466.771 139.764 467.233 144.695H465.45C464.944 140.271 463.403 136.908 460.828 134.607C458.253 132.306 454.676 131.156 450.098 131.156C445.432 131.156 441.663 132.917 438.791 136.439C435.918 139.962 434.482 144.685 434.482 150.608V157.674C434.482 161.461 435.12 164.814 436.397 167.73C437.673 170.648 439.506 172.922 441.894 174.55C444.282 176.18 447.017 176.994 450.098 176.994C454.698 176.994 458.291 175.861 460.878 173.593C463.464 171.325 464.988 167.924 465.45 163.388H467.233Z" fill="white"/>
<path d="M491.878 158.235L508.715 130.032H510.894L492.769 159.853V178.116H490.986V159.853L472.861 130.032H475.239L491.878 158.235Z" fill="white" stroke="#1C1C1B" stroke-width="0.0762" stroke-miterlimit="22.9256"/>
<path d="M232.266 232.335H0V0H232.266V232.335ZM13.4432 218.887H218.823V13.4475H13.4432V218.887Z" fill="white"/>
<path d="M61.144 129.707H47.5331V160.069H30.4492V77.1299H61.2575C71.0527 77.1299 78.6067 79.3137 83.9223 83.6802C89.2375 88.0482 91.8951 94.2189 91.8951 102.194C91.8951 107.853 90.6711 112.571 88.2219 116.349C85.7735 120.129 82.0623 123.138 77.0893 125.378L95.0275 159.272V160.069H76.6907L61.144 129.707ZM47.5331 115.865H61.3147C65.6045 115.865 68.9259 114.774 71.2805 112.59C73.6337 110.406 74.8112 107.397 74.8112 103.561C74.8112 99.6497 73.7007 96.5743 71.4802 94.3325C69.2586 92.0926 65.8506 90.9719 61.2575 90.9719H47.5331V115.865Z" fill="white"/>
<path d="M154.787 124.125H121.984V146.341H160.481V160.069H104.9V77.1299H160.367V90.9719H121.984V110.739H154.787V124.125Z" fill="white"/>
<path d="M201.799 123.974H168.898V110.618H201.799V123.974Z" fill="white"/>
</svg>
