<svg width="446" height="175" viewBox="0 0 446 175" fill="none" xmlns="http://www.w3.org/2000/svg">
<path d="M210.618 65.7302H200.08V83.8838H194.133V39.0078H208.985C214.038 39.0078 217.925 40.1587 220.647 42.4597C223.369 44.761 224.73 48.1109 224.73 52.5074C224.73 55.3022 223.975 57.7369 222.465 59.8121C220.955 61.888 218.855 63.4389 216.164 64.4661L226.702 83.5141V83.8838H220.354L210.618 65.7302V65.7302ZM200.08 60.891H209.17C212.107 60.891 214.443 60.1296 216.179 58.6061C217.915 57.0828 218.783 55.0453 218.783 52.4923C218.783 49.7133 217.956 47.5832 216.303 46.1008C214.649 44.6187 212.261 43.8672 209.139 43.8467H200.08V60.891V60.891Z" fill="black"/>
<path d="M258.398 63.1412H238.955V79.0447H261.541V83.8838H233.039V39.0078H261.232V43.8467H238.955V58.3021H258.398V63.1412Z" fill="black"/>
<path d="M283.31 63.591H265.078V57.9482H283.31V63.591Z" fill="black"/>
<path d="M290.008 83.8838V39.0078H304.675C309.543 39.0078 313.203 40.015 315.659 42.0286C318.113 44.0421 319.341 47.0211 319.341 50.9665C319.341 53.0623 318.745 54.9167 317.554 56.5297C316.362 58.1432 314.739 59.3913 312.685 60.2747C315.109 60.9525 317.025 62.2426 318.432 64.1427C319.838 66.0437 320.543 68.3086 320.543 70.9388C320.543 74.9664 319.238 78.1306 316.629 80.4316C314.02 82.7331 310.333 83.8838 305.568 83.8838H290.008ZM295.923 58.148H304.859C307.448 58.148 309.516 57.4997 311.068 56.2025C312.618 54.905 313.395 53.1443 313.395 50.9202C313.395 48.4489 312.675 46.6525 311.237 45.5305C309.799 44.4081 307.611 43.8467 304.675 43.8467H295.923V58.148ZM295.923 62.8946V79.0447H305.691C308.444 79.0447 310.615 78.3309 312.208 76.9025C313.799 75.4747 314.596 73.5075 314.596 71.0005C314.596 65.5968 311.657 62.8946 305.783 62.8946H295.923V62.8946Z" fill="black"/>
<path d="M363.8 62.894C363.8 67.2911 363.06 71.1282 361.581 74.4058C360.102 77.6831 358.007 80.1844 355.296 81.9105C352.585 83.6366 349.421 84.4995 345.805 84.4995C342.272 84.4995 339.139 83.6317 336.407 81.8954C333.676 80.1593 331.555 77.6831 330.045 74.4672C328.535 71.2519 327.759 67.5274 327.719 63.2946V60.0581C327.719 55.743 328.468 51.932 329.967 48.6235C331.467 45.3156 333.588 42.7829 336.33 41.0256C339.073 39.2693 342.21 38.3906 345.744 38.3906C349.338 38.3906 352.507 39.259 355.249 40.9953C357.992 42.7317 360.102 45.2487 361.581 48.5463C363.06 51.8445 363.8 55.6816 363.8 60.0581V62.894V62.894ZM357.914 59.9964C357.914 54.675 356.847 50.5913 354.71 47.7452C352.574 44.8993 349.585 43.4763 345.744 43.4763C342.005 43.4763 339.062 44.8993 336.916 47.7452C334.77 50.5913 333.666 54.5413 333.604 59.5958V62.894C333.604 68.0517 334.687 72.1048 336.854 75.053C339.021 78.0017 342.005 79.4758 345.805 79.4758C349.626 79.4758 352.585 78.0837 354.68 75.2996C356.775 72.5151 357.853 68.524 357.914 63.3252V59.9964V59.9964Z" fill="black"/>
<path d="M389.11 65.7302H378.572V83.8838H372.625V39.0078H387.477C392.53 39.0078 396.417 40.1587 399.139 42.4597C401.861 44.761 403.222 48.1109 403.222 52.5074C403.222 55.3022 402.467 57.7369 400.958 59.8121C399.447 61.888 397.347 63.4389 394.657 64.4661L405.194 83.5141V83.8838H398.847L389.11 65.7302V65.7302ZM378.572 60.891H387.662C390.599 60.891 392.935 60.1296 394.671 58.6061C396.407 57.0828 397.275 55.0453 397.275 52.4923C397.275 49.7133 396.448 47.5832 394.794 46.1008C393.141 44.6187 390.753 43.8672 387.631 43.8467H378.572V60.891V60.891Z" fill="black"/>
<path d="M446.002 83.8838H440.055L417.47 49.3018V83.8838H411.523V39.0078H417.47L440.117 73.7432V39.0078H446.002V83.8838Z" fill="black"/>
<path d="M215.239 122.745H197.594L193.585 133.512H192.125L205.612 97.4697H207.245L220.733 133.512H219.272L215.239 122.745ZM198.089 121.408H214.744L206.429 99.0784L198.089 121.408Z" fill="black"/>
<path d="M251.628 129.651C250.72 130.905 249.128 131.944 246.852 132.77C244.575 133.595 242.067 134.008 239.329 134.008C236.656 134.008 234.271 133.356 232.177 132.052C230.081 130.749 228.443 128.909 227.264 126.531C226.085 124.155 225.478 121.466 225.445 118.462V112.273C225.445 109.319 226.014 106.67 227.153 104.327C228.291 101.983 229.891 100.172 231.954 98.8933C234.016 97.6147 236.334 96.9746 238.908 96.9746C242.488 96.9746 245.405 97.8901 247.656 99.7222C249.908 101.554 251.215 104.054 251.578 107.223H250.242C249.796 104.352 248.601 102.149 246.654 100.614C244.707 99.0784 242.124 98.3115 238.908 98.3115C235.278 98.3115 232.35 99.607 230.123 102.198C227.895 104.789 226.782 108.196 226.782 112.422V118.164C226.782 120.987 227.305 123.504 228.353 125.714C229.4 127.926 230.877 129.638 232.783 130.852C234.688 132.065 236.87 132.671 239.329 132.671C241.737 132.671 243.973 132.315 246.035 131.605C248.097 130.893 249.516 130.034 250.291 129.026V118.511H239.279V117.174H251.628V129.651V129.651Z" fill="black"/>
<path d="M280.448 115.639H262.383V132.176H282.973V133.512H261.047V97.4697H282.973V98.8067H262.383V114.302H280.448V115.639Z" fill="black"/>
<path d="M315.835 133.512H314.499L291.236 99.7467V133.512H289.875V97.4697H291.236L314.499 131.161V97.4697H315.835V133.512Z" fill="black"/>
<path d="M350.222 122.472C349.875 126.185 348.596 129.037 346.386 131.025C344.175 133.014 341.172 134.008 337.378 134.008C334.82 134.008 332.556 133.36 330.585 132.065C328.613 130.769 327.083 128.929 325.994 126.544C324.905 124.159 324.353 121.432 324.336 118.363V112.793C324.336 109.723 324.872 106.98 325.945 104.562C327.017 102.145 328.547 100.275 330.536 98.9553C332.523 97.6352 334.805 96.9746 337.378 96.9746C341.14 96.9746 344.134 97.9649 346.362 99.9456C348.588 101.925 349.875 104.764 350.222 108.46H348.885C348.506 105.144 347.351 102.623 345.421 100.899C343.491 99.1739 340.809 98.3115 337.378 98.3115C333.881 98.3115 331.055 99.6316 328.902 102.271C326.749 104.913 325.672 108.452 325.672 112.892V118.189C325.672 121.028 326.15 123.541 327.108 125.727C328.064 127.914 329.438 129.618 331.228 130.839C333.018 132.061 335.068 132.671 337.378 132.671C340.826 132.671 343.519 131.821 345.458 130.121C347.397 128.421 348.539 125.872 348.885 122.472H350.222Z" fill="black"/>
<path d="M368.7 118.61L381.32 97.4697H382.954L369.368 119.823V133.512H368.031V119.823L354.445 97.4697H356.227L368.7 118.61Z" fill="black"/>
<path d="M174.102 174.154H0V0H174.102V174.154ZM10.0767 164.074H164.025V10.08H10.0767V164.074Z" fill="black"/>
<path d="M45.8363 97.2265H35.6339V119.985H22.8281V57.8154H45.9214C53.2637 57.8154 58.926 59.4524 62.9105 62.7254C66.8947 65.9996 68.8867 70.625 68.8867 76.6031C68.8867 80.8447 67.9693 84.3815 66.1334 87.2137C64.2981 90.0467 61.5163 92.302 57.7886 93.9812L71.2348 119.388V119.985H57.4898L45.8363 97.2265V97.2265ZM35.6339 86.8508H45.9643C49.1798 86.8508 51.6695 86.0327 53.4345 84.3955C55.1983 82.7588 56.081 80.5033 56.081 77.6277C56.081 74.6958 55.2486 72.3905 53.5842 70.7102C51.9188 69.0312 49.3643 68.1912 45.9214 68.1912H35.6339V86.8508V86.8508Z" fill="black"/>
<path d="M116.026 93.042H91.4386V109.695H120.295V119.985H78.6328V57.8154H120.21V68.1912H91.4386V83.008H116.026V93.042Z" fill="black"/>
<path d="M151.263 92.9287H126.602V82.917H151.263V92.9287Z" fill="black"/>
</svg>
