<svg width="787" height="61" viewBox="0 0 787 61" fill="none" xmlns="http://www.w3.org/2000/svg">
<path d="M786 30.5V30.75H786.25V30.5H786ZM2 30.5V30.25H1.75V30.5H2ZM1.82322 60.1768C1.92085 60.2744 2.07915 60.2744 2.17678 60.1768L3.76777 58.5858C3.8654 58.4882 3.8654 58.3299 3.76777 58.2322C3.67014 58.1346 3.51184 58.1346 3.41421 58.2322L2 59.6464L0.585786 58.2322C0.488155 58.1346 0.329864 58.1346 0.232233 58.2322C0.134602 58.3299 0.134602 58.4882 0.232233 58.5858L1.82322 60.1768ZM785.75 0V30.5H786.25V0H785.75ZM786 30.25H2V30.75H786V30.25ZM1.75 30.5V60H2.25V30.5H1.75Z" fill="black"/>
</svg>
