<svg width="24" height="25" viewBox="0 0 24 25" fill="none" xmlns="http://www.w3.org/2000/svg">
<path d="M23.7305 12.0429C23.6922 12.8874 23.5536 13.7276 23.3147 14.5634C23.0757 15.3993 22.7124 16.1611 22.2249 16.8489C21.747 17.5367 21.1304 18.0852 20.3752 18.4944C19.6201 18.9036 18.712 19.1082 17.6509 19.1082C17.0105 19.1082 16.4417 19.0081 15.9446 18.8078C15.4476 18.5989 15.0317 18.3029 14.6972 17.9198C14.3722 17.5367 14.138 17.0752 13.9946 16.5354C13.8512 15.9869 13.813 15.3775 13.8799 14.7071L14.6111 7.30224H17.1204L16.4035 14.7071C16.3461 15.2382 16.3557 15.6735 16.4321 16.0131C16.5182 16.3526 16.6472 16.6138 16.8193 16.7966C16.9913 16.9795 17.1873 17.1057 17.4072 17.1754C17.627 17.245 17.8469 17.2799 18.0667 17.2799C18.5829 17.2799 19.0465 17.1493 19.4576 16.8881C19.8686 16.6182 20.2175 16.2481 20.5043 15.778C20.8006 15.2991 21.03 14.7463 21.1926 14.1194C21.3646 13.4925 21.465 12.8134 21.4937 12.0821C21.5606 10.8632 21.4984 9.74005 21.3073 8.71269C21.1161 7.67662 20.7911 6.75373 20.3322 5.94403C19.883 5.13433 19.2951 4.45087 18.5686 3.89366C17.8517 3.32774 16.9913 2.89677 15.9876 2.60075C14.9839 2.30473 13.8368 2.15672 12.5464 2.15672C11.3611 2.15672 10.2665 2.32214 9.26284 2.65298C8.25914 2.98383 7.36058 3.46269 6.56718 4.08955C5.77378 4.70771 5.09031 5.45211 4.51676 6.32276C3.95278 7.1847 3.50828 8.15547 3.18327 9.23507C2.86782 10.306 2.68142 11.4552 2.62407 12.6828C2.55715 13.9714 2.62885 15.1468 2.83915 16.209C3.059 17.2711 3.41269 18.2114 3.9002 19.0298C4.38771 19.8483 4.99949 20.5361 5.73554 21.0933C6.48115 21.6592 7.34146 22.0858 8.31649 22.3731C9.30107 22.6604 10.3908 22.8041 11.5857 22.8041C12.4269 22.8041 13.2776 22.717 14.138 22.5429C15.0078 22.3688 15.7391 22.1381 16.3318 21.8507L16.8766 23.5877C16.2075 23.9795 15.3711 24.2711 14.3674 24.4627C13.3637 24.6542 12.4173 24.75 11.5283 24.75C10.0467 24.75 8.68929 24.5759 7.45617 24.2276C6.23261 23.8794 5.14766 23.3657 4.20131 22.6866C3.26452 22.0162 2.48546 21.1934 1.86412 20.2183C1.24278 19.2432 0.783947 18.1244 0.487616 16.8619C0.191285 15.5995 0.0765758 14.2065 0.143489 12.6828C0.210403 11.255 0.449379 9.91418 0.860419 8.66045C1.27146 7.39801 1.83544 6.25311 2.55237 5.22575C3.27886 4.19838 4.13918 3.31468 5.13332 2.57463C6.13702 1.82587 7.26499 1.25124 8.51723 0.850746C9.76947 0.450249 11.1316 0.25 12.6037 0.25C14.0949 0.25 15.4428 0.428483 16.6472 0.785448C17.8517 1.14241 18.9079 1.66045 19.816 2.33955C20.7337 3.01866 21.4937 3.84142 22.0959 4.80784C22.6981 5.77425 23.1378 6.86692 23.415 8.08582C23.6922 9.29602 23.7974 10.615 23.7305 12.0429ZM9.14813 13.2836C9.08121 13.8756 9.07644 14.4024 9.13379 14.8638C9.2007 15.3252 9.32019 15.7127 9.49225 16.0261C9.67388 16.3396 9.90807 16.579 10.1948 16.7444C10.4816 16.9098 10.8162 16.9925 11.1985 16.9925C11.4375 16.9925 11.6908 16.9403 11.9585 16.8358C12.2357 16.7226 12.5081 16.5442 12.7758 16.3004C13.0434 16.0566 13.2968 15.7345 13.5357 15.334C13.7747 14.9248 13.9755 14.4198 14.138 13.819L15.2277 14.9552C15.0078 15.6343 14.7306 16.2351 14.3961 16.7575C14.0615 17.2711 13.6839 17.7021 13.2633 18.0504C12.8427 18.3899 12.3886 18.6511 11.9011 18.834C11.4136 19.0081 10.907 19.0951 10.3812 19.0951C9.68344 19.0951 9.0621 18.9558 8.51723 18.6772C7.98192 18.3986 7.54221 18.0068 7.19808 17.5019C6.85395 16.9882 6.6102 16.3787 6.46681 15.6735C6.32342 14.9596 6.29475 14.1629 6.38078 13.2836C6.47637 12.3868 6.65799 11.5553 6.92565 10.7892C7.20286 10.023 7.54221 9.33955 7.94369 8.73881C8.35473 8.13806 8.81834 7.62873 9.33453 7.21082C9.85072 6.7842 10.4051 6.46206 10.9978 6.2444C11.6 6.01803 12.2166 5.90485 12.8475 5.90485C13.9277 5.90485 14.7736 6.04415 15.3854 6.32276C15.9972 6.60137 16.5755 6.92786 17.1204 7.30224L15.7726 8.8694C15.4953 8.63433 15.1321 8.41231 14.6828 8.20336C14.2431 7.9944 13.7174 7.88993 13.1056 7.88993C12.5607 7.88993 12.0636 8.00311 11.6144 8.22948C11.1747 8.45584 10.7875 8.79975 10.4529 9.26119C10.1184 9.71393 9.83638 10.2755 9.60696 10.9459C9.3871 11.6163 9.23416 12.3955 9.14813 13.2836Z" fill="white"/>
</svg>
