<svg width="16" height="25" viewBox="0 0 16 25" fill="none" xmlns="http://www.w3.org/2000/svg">
<path d="M6.7498 21.1549H9.99526C10.1395 21.1549 10.2657 21.1008 10.3739 20.9926C10.4821 20.8844 10.5362 20.7582 10.5362 20.614C10.5362 20.4697 10.4821 20.3435 10.3739 20.2353C10.2657 20.1272 10.1395 20.0731 9.99526 20.0731H6.7498C6.60556 20.0731 6.47935 20.1272 6.37117 20.2353C6.26299 20.3435 6.2089 20.4697 6.2089 20.614C6.2089 20.7582 6.26299 20.8844 6.37117 20.9926C6.47935 21.1008 6.60556 21.1549 6.7498 21.1549ZM2.96344 24.4003C2.36844 24.4003 1.85927 24.1887 1.43591 23.7653C1.01184 23.3412 0.799805 22.8317 0.799805 22.2367V2.76398C0.799805 2.16898 1.01184 1.65944 1.43591 1.23537C1.85927 0.812018 2.36844 0.600342 2.96344 0.600342H13.7816C14.3766 0.600342 14.8862 0.812018 15.3102 1.23537C15.7336 1.65944 15.9453 2.16898 15.9453 2.76398V22.2367C15.9453 22.8317 15.7336 23.3412 15.3102 23.7653C14.8862 24.1887 14.3766 24.4003 13.7816 24.4003H2.96344ZM2.96344 16.8276H13.7816V6.00943H2.96344V16.8276Z" fill="white"/>
</svg>
