<svg width="25" height="25" viewBox="0 0 25 25" fill="none" xmlns="http://www.w3.org/2000/svg">
<path fill-rule="evenodd" clip-rule="evenodd" d="M20.7539 4.24733C19.6758 3.17181 18.4206 2.32806 17.0221 1.73952C15.5742 1.13275 14.0352 0.825457 12.4492 0.83327C10.8711 0.841082 9.34245 1.15358 7.90495 1.76817C6.51693 2.35931 5.27214 3.20567 4.20703 4.28119C3.14193 5.3541 2.30859 6.60671 1.72786 7.99994C1.13672 9.42442 0.834636 10.9374 0.834636 12.4973L0.834636 12.552C0.842449 14.3593 1.27474 16.1536 2.08464 17.7577L2.08464 21.7187C2.08464 22.3801 2.62109 22.9166 3.28255 22.9166L7.24089 22.9166C8.84505 23.7265 10.6393 24.1588 12.4466 24.1666C14.0247 24.1744 15.5586 23.8723 17.0013 23.2734C18.3945 22.6952 19.6445 21.8593 20.7201 20.7942C21.7956 19.7291 22.6393 18.4843 23.2331 17.0963C23.8477 15.6588 24.1602 14.1301 24.168 12.552L24.168 12.4999C24.168 10.9322 23.8633 9.41139 23.2617 7.9791C22.6758 6.57806 21.8294 5.32285 20.7539 4.24733ZM2.8138 12.4999C2.8138 9.92181 3.80859 7.49994 5.61588 5.67442C7.43359 3.84108 9.86328 2.82285 12.457 2.80723C13.7747 2.80202 15.0508 3.05462 16.2539 3.55983C17.4154 4.04681 18.4596 4.74994 19.3529 5.64317C20.2487 6.539 20.9492 7.58067 21.4362 8.74212C21.9362 9.93223 22.1888 11.1952 22.1888 12.4973L22.1888 12.5416C22.1784 15.138 21.1628 17.5676 19.3268 19.3854C17.4909 21.2057 15.0534 22.1979 12.457 22.1874C10.8867 22.1796 9.32682 21.789 7.94922 21.0546L7.73047 20.9374L4.0638 20.9374L4.0638 17.2708L3.94661 17.052C3.21224 15.6744 2.82161 14.1145 2.8138 12.5442L2.8138 12.4999ZM11.1439 9.21402C11.0502 8.951 10.3575 7.53694 10.2116 7.25308C10.1891 7.20682 10.1684 7.16299 10.1488 7.1217C10.0484 6.90967 9.97989 6.76506 9.87309 6.70621C9.75329 6.6359 9.17777 6.6359 8.5059 6.87288C7.83142 7.10985 7.22205 8.25308 7.13871 8.80777C7.0033 9.71923 7.071 10.4328 7.85746 12.2557C9.01896 14.94 11.6097 16.7527 12.1166 17.1074C12.154 17.1336 12.1801 17.1519 12.1934 17.1619C12.1982 17.1654 12.2037 17.1694 12.2098 17.174C12.4538 17.3528 13.7882 18.3312 15.1648 18.3312C16.4826 18.3312 17.1761 17.6842 17.4976 17.3843C17.5205 17.363 17.5414 17.3434 17.5606 17.326C17.8444 17.063 17.9174 16.7531 17.9174 16.5604C17.9174 16.3677 17.9174 16.1776 17.9069 16.0109C17.9057 15.9897 17.9057 15.9675 17.9058 15.9444C17.9061 15.7782 17.9065 15.5686 17.4148 15.3651C17.2221 15.2849 16.9359 15.1673 16.6347 15.0437C16.0362 14.798 15.379 14.5282 15.2819 14.4796C15.1361 14.4067 14.972 14.3599 14.7793 14.4536C14.2922 14.6977 14.0287 14.9496 13.8418 15.1283C13.6079 15.3518 13.4938 15.4609 13.2116 15.2974C11.3028 14.1854 10.6413 13.0786 9.79757 11.3911C9.65434 11.1072 9.67777 10.938 9.87048 10.7713C10.0658 10.5994 10.709 10.0526 10.9981 9.85985C11.2898 9.66975 11.2429 9.47704 11.1439 9.21402Z" fill="white"/>
</svg>
