<svg width="283" height="110" viewBox="0 0 283 110" fill="none" xmlns="http://www.w3.org/2000/svg">
<path d="M133.721 41.5177H127.065V52.984H123.309V24.6392H132.689C135.881 24.6392 138.336 25.3661 140.056 26.8195C141.775 28.273 142.634 30.3889 142.634 33.1659C142.634 34.9311 142.158 36.4689 141.204 37.7797C140.25 39.0909 138.924 40.0705 137.224 40.7193L143.88 52.7505V52.984H139.871L133.721 41.5177ZM127.065 38.4612H132.806C134.662 38.4612 136.137 37.9802 137.234 37.0179C138.33 36.0558 138.878 34.7689 138.878 33.1563C138.878 31.401 138.356 30.0556 137.312 29.1193C136.267 28.1831 134.759 27.7085 132.787 27.6955H127.065V38.4612Z" fill="#1C1C1B"/>
<path d="M163.882 39.8824H151.602V49.9275H165.868V52.984H147.865V24.6392H165.673V27.6955H151.602V36.8259H163.882V39.8824Z" fill="#1C1C1B"/>
<path d="M179.623 40.1652H168.107V36.6011H179.623V40.1652Z" fill="#1C1C1B"/>
<path d="M183.852 52.984V24.6392H193.116C196.19 24.6392 198.503 25.2753 200.053 26.5471C201.604 27.819 202.379 29.7006 202.379 32.1926C202.379 33.5164 202.003 34.6876 201.25 35.7064C200.498 36.7256 199.472 37.5139 198.175 38.0719C199.706 38.5 200.916 39.3149 201.805 40.515C202.693 41.7157 203.138 43.1463 203.138 44.8076C203.138 47.3516 202.314 49.3501 200.666 50.8035C199.019 52.2572 196.689 52.984 193.68 52.984H183.852ZM187.588 36.7286H193.232C194.867 36.7286 196.174 36.3191 197.154 35.4998C198.133 34.6802 198.623 33.5682 198.623 32.1633C198.623 30.6024 198.169 29.4678 197.261 28.759C196.352 28.0501 194.97 27.6955 193.116 27.6955H187.588V36.7286ZM187.588 39.7267V49.9275H193.758C195.496 49.9275 196.868 49.4767 197.874 48.5745C198.879 47.6726 199.382 46.4301 199.382 44.8466C199.382 41.4334 197.526 39.7267 193.816 39.7267H187.588Z" fill="#1C1C1B"/>
<path d="M230.47 39.726C230.47 42.5033 230.002 44.9269 229.068 46.9972C228.134 49.0672 226.811 50.6471 225.098 51.7373C223.386 52.8276 221.387 53.3726 219.104 53.3726C216.872 53.3726 214.893 52.8245 213.168 51.7278C211.442 50.6312 210.103 49.0672 209.149 47.036C208.195 45.0051 207.705 42.6526 207.68 39.979V37.9348C207.68 35.2093 208.153 32.8021 209.1 30.7124C210.047 28.623 211.387 27.0233 213.119 25.9134C214.851 24.804 216.833 24.249 219.065 24.249C221.335 24.249 223.337 24.7975 225.069 25.8942C226.801 26.991 228.134 28.5808 229.068 30.6636C230.002 32.7469 230.47 35.1705 230.47 37.9348V39.726ZM226.752 37.8958C226.752 34.5346 226.078 31.9553 224.728 30.1576C223.379 28.3601 221.491 27.4613 219.065 27.4613C216.703 27.4613 214.845 28.3601 213.489 30.1576C212.133 31.9553 211.436 34.4502 211.397 37.6428V39.726C211.397 42.9838 212.081 45.5438 213.45 47.4059C214.818 49.2684 216.703 50.1995 219.104 50.1995C221.517 50.1995 223.386 49.3202 224.709 47.5617C226.032 45.803 226.713 43.2821 226.752 39.9983V37.8958Z" fill="#1C1C1B"/>
<path d="M246.461 41.5177H239.805V52.984H236.049V24.6392H245.43C248.621 24.6392 251.077 25.3661 252.796 26.8195C254.515 28.273 255.375 30.3889 255.375 33.1659C255.375 34.9311 254.898 36.4689 253.944 37.7797C252.99 39.0909 251.664 40.0705 249.965 40.7193L256.62 52.7505V52.984H252.611L246.461 41.5177ZM239.805 38.4612H245.546C247.402 38.4612 248.877 37.9802 249.974 37.0179C251.07 36.0558 251.618 34.7689 251.618 33.1563C251.618 31.401 251.096 30.0556 250.052 29.1193C249.007 28.1831 247.499 27.7085 245.527 27.6955H239.805V38.4612Z" fill="#1C1C1B"/>
<path d="M282.385 52.984H278.629L264.364 31.1411V52.984H260.607V24.6392H264.364L278.668 46.579V24.6392H282.385V52.984Z" fill="#1C1C1B"/>
<path d="M136.617 77.5292H125.472L122.94 84.3304H122.018L130.537 61.5649H131.568L140.087 84.3304H139.165L136.617 77.5292ZM125.785 76.6848H136.304L131.052 62.581L125.785 76.6848Z" fill="#1C1C1B" stroke="#1C1C1B" stroke-width="0.0997664" stroke-miterlimit="22.9256"/>
<path d="M159.612 81.8916C159.039 82.6837 158.033 83.3402 156.595 83.862C155.157 84.383 153.573 84.6434 151.843 84.6434C150.155 84.6434 148.649 84.232 147.326 83.4081C146.002 82.5849 144.968 81.4229 144.223 79.9213C143.478 78.4203 143.095 76.7217 143.074 74.8242V70.9153C143.074 69.0493 143.434 67.3761 144.153 65.8964C144.872 64.416 145.882 63.272 147.185 62.4643C148.488 61.6567 149.952 61.2524 151.578 61.2524C153.839 61.2524 155.681 61.8307 157.103 62.9879C158.525 64.1449 159.351 65.7242 159.581 67.7255H158.737C158.455 65.9119 157.7 64.5205 156.47 63.5512C155.24 62.5813 153.609 62.0969 151.578 62.0969C149.285 62.0969 147.435 62.9152 146.029 64.5515C144.622 66.1881 143.918 68.3404 143.918 71.0091V74.6365C143.918 76.419 144.249 78.0088 144.911 79.4052C145.572 80.8024 146.505 81.8836 147.709 82.6501C148.912 83.4162 150.29 83.7992 151.843 83.7992C153.364 83.7992 154.777 83.5747 156.079 83.1258C157.382 82.6763 158.278 82.1334 158.768 81.4968V74.8552H151.812V74.0109H159.612V81.8916Z" fill="#1C1C1B"/>
<path d="M177.803 73.0413H166.393V83.4861H179.398V84.3304H165.549V61.5649H179.398V62.4094H166.393V72.1969H177.803V73.0413Z" fill="#1C1C1B"/>
<path d="M200.169 84.3304H199.325L184.631 63.0031V84.3304H183.771V61.5649H184.631L199.325 82.8451V61.5649H200.169V84.3304Z" fill="#1C1C1B"/>
<path d="M221.897 77.3571C221.678 79.7024 220.87 81.5037 219.474 82.7596C218.078 84.0156 216.181 84.6434 213.784 84.6434C212.169 84.6434 210.739 84.2343 209.494 83.4162C208.249 82.5979 207.282 81.4359 206.594 79.9294C205.907 78.4228 205.557 76.7006 205.547 74.7619V71.2435C205.547 69.3049 205.886 67.5719 206.563 66.045C207.24 64.518 208.206 63.3373 209.463 62.5035C210.718 61.6697 212.159 61.2524 213.784 61.2524C216.161 61.2524 218.052 61.878 219.459 63.129C220.865 64.3793 221.678 66.1724 221.897 68.5072H221.053C220.813 66.4124 220.084 64.8201 218.864 63.7309C217.646 62.6416 215.952 62.0969 213.784 62.0969C211.575 62.0969 209.791 62.9307 208.431 64.5981C207.071 66.2664 206.391 68.5021 206.391 71.3063V74.652C206.391 76.445 206.693 78.0325 207.298 79.4133C207.902 80.7948 208.77 81.8712 209.9 82.6422C211.031 83.4137 212.326 83.7992 213.784 83.7992C215.962 83.7992 217.664 83.2626 218.888 82.1888C220.113 81.115 220.834 79.5048 221.053 77.3571H221.897Z" fill="#1C1C1B"/>
<path d="M233.556 74.9177L241.528 61.5649H242.56L233.978 75.6837V84.3304H233.134V75.6837L224.553 61.5649H225.678L233.556 74.9177Z" fill="#1C1C1B" stroke="#1C1C1B" stroke-width="0.0997664" stroke-miterlimit="22.9256"/>
<path d="M110.647 110H0.679688V0H110.647V110ZM7.04442 103.633H104.282V6.36679H7.04442V103.633Z" fill="#1C1C1B"/>
<path d="M29.64 61.4107H23.1959V75.7857H15.1074V36.5176H29.6938C34.3313 36.5176 37.9078 37.5515 40.4245 39.6189C42.941 41.6869 44.1993 44.6085 44.1993 48.3843C44.1993 51.0635 43.6198 53.2974 42.4602 55.0863C41.301 56.8757 39.5439 58.3002 37.1894 59.3608L45.6823 75.4083V75.7857H37.0007L29.64 61.4107ZM23.1959 54.8571H29.7208C31.7518 54.8571 33.3244 54.3404 34.4392 53.3063C35.5533 52.2725 36.1108 50.8478 36.1108 49.0315C36.1108 47.1797 35.5851 45.7236 34.5337 44.6622C33.4819 43.6018 31.8684 43.0712 29.6938 43.0712H23.1959V54.8571Z" fill="#1C1C1B"/>
<path d="M73.9645 58.7676H58.4342V69.2859H76.6605V75.7857H50.3457V36.5176H76.6068V43.0712H58.4342V52.4299H73.9645V58.7676Z" fill="#1C1C1B"/>
<path d="M96.2216 58.6967H80.6445V52.373H96.2216V58.6967Z" fill="#1C1C1B"/>
</svg>
