<svg width="31" height="38" viewBox="0 0 31 38" fill="none" xmlns="http://www.w3.org/2000/svg">
<path d="M14.3646 0.024662C12.8057 0.247372 11.8406 0.522045 10.6974 1.06396C7.73537 2.46702 5.67904 5.04301 4.92926 8.29453C4.8179 8.77707 4.79563 9.39322 4.77336 12.7264L4.74367 16.6089H4.27598C2.60568 16.6089 1.13581 17.4998 0.452839 18.9325C0.28952 19.2666 0.126201 19.7417 0.0816594 19.9793C0.0296943 20.2688 0 22.1618 0 25.2871C0 30.6321 0.0222707 30.9439 0.445415 32.2133C0.861136 33.4531 1.55153 34.574 2.4869 35.502C3.76376 36.7788 5.40437 37.6103 7.1786 37.8775C8.25502 38.0408 22.6271 38.0408 23.7035 37.8775C25.4852 37.6103 27.0961 36.7937 28.3952 35.502C29.3454 34.5443 30.0135 33.4679 30.4367 32.1985C30.8598 30.9587 30.8821 30.5653 30.8821 25.25C30.8821 22.1469 30.8524 20.2613 30.8004 19.9793C30.7559 19.7417 30.5926 19.2666 30.4293 18.9325C29.7463 17.4998 28.2764 16.6089 26.6061 16.6089H26.1384L26.1087 12.7264C26.079 8.49497 26.079 8.5024 25.6039 7.07707C24.4533 3.61768 21.3576 0.95261 17.6013 0.195408C16.9183 0.0543594 14.8843 -0.049572 14.3646 0.024662ZM17.4825 1.38318C20.6598 2.081 23.221 4.20414 24.3419 7.06964C24.8913 8.48012 24.8913 8.5024 24.921 12.7635L24.9507 16.6089H23.7629H22.5751L22.5454 13.0605C22.5157 9.0072 22.5157 9.0072 21.8253 7.58187C19.5389 2.86047 13.1249 2.16265 9.85852 6.28274C9.34629 6.92117 8.75983 8.08667 8.52227 8.92554C8.36638 9.49715 8.35895 9.66047 8.32926 13.0605L8.30699 16.6089H7.11922H5.93144L5.96114 12.7635C5.99083 8.5024 5.99083 8.48012 6.54018 7.06964C7.77991 3.89977 10.779 1.65785 14.4017 1.21244C14.9956 1.1382 16.8293 1.24213 17.4825 1.38318ZM16.8441 4.92423C17.1188 4.98362 17.6756 5.20633 18.0987 5.41418C19.383 6.03777 20.4445 7.18842 20.9494 8.5024C21.3502 9.52685 21.3799 9.86091 21.3799 13.3871V16.6089H15.4411H9.50219V13.3871C9.50219 9.86091 9.53188 9.52685 9.93275 8.5024C10.6677 6.60196 12.5236 5.13209 14.5873 4.80545C15.159 4.71637 16.228 4.77576 16.8441 4.92423ZM28.0018 18.1085C28.6773 18.4426 29.093 18.8731 29.4197 19.5635L29.6572 20.0609L29.6795 24.9976C29.6943 28.4199 29.6795 30.1124 29.6201 30.5282C29.2266 33.2526 27.3485 35.5242 24.7576 36.4076C23.5996 36.8011 23.5847 36.8011 15.4411 36.8011C7.29738 36.8011 7.28253 36.8011 6.12446 36.4076C3.94192 35.6579 2.22707 33.9133 1.53668 31.7159C1.1952 30.6321 1.18035 30.2683 1.20262 24.9976L1.22489 20.0609L1.46245 19.5635C1.58865 19.2889 1.83362 18.9177 1.99694 18.7395C2.32358 18.3832 2.99913 17.9897 3.45939 17.8784C3.63013 17.8413 8.60393 17.819 15.5969 17.819L27.4376 17.8338L28.0018 18.1085Z" fill="white"/>
<path d="M14.6172 21.4642C13.5928 21.7537 12.7242 22.5629 12.3976 23.5502C12.2639 23.9585 12.2342 24.1664 12.2639 24.738C12.2862 25.3467 12.3233 25.4877 12.5683 25.9851C12.984 26.8166 13.7115 27.4476 14.5356 27.6629L14.8473 27.7519V29.7192V31.6864L15.0329 31.8646C15.2705 32.1096 15.612 32.1096 15.8495 31.8646L16.0351 31.6864V29.7192V27.7519L16.3543 27.6629C17.1784 27.4476 17.9504 26.7646 18.3587 25.9109C18.7744 25.0126 18.715 23.8026 18.2177 22.9489C17.9801 22.548 17.3342 21.9393 16.9185 21.7314C16.2207 21.3677 15.3373 21.2712 14.6172 21.4642ZM16.3024 22.7559C17.0744 23.1493 17.4456 23.7432 17.4382 24.545C17.4308 25.1166 17.3491 25.3838 17.0299 25.8367C16.5028 26.579 15.3225 26.824 14.4836 26.3712C13.7635 25.9777 13.4146 25.3319 13.4517 24.4707C13.4666 24.003 13.5111 23.8471 13.6967 23.5428C13.9342 23.1642 14.4613 22.7484 14.877 22.6222C15.2334 22.5109 15.9609 22.5851 16.3024 22.7559Z" fill="white"/>
</svg>
